<svg id="Layer_1" data-name="Layer 1" xmlns="http://www.w3.org/2000/svg" viewBox="0 0 361.96 441.8"><defs><style>.cls-1{fill:#ece9d6;}.cls-2{fill:#c87f2a;}.cls-3{fill:#733f2a;}.cls-4{fill:#ede4d6;}.cls-5{fill:#dcd3c7;}.cls-6{fill:#d28f29;}.cls-7{fill:#c37c2a;}.cls-8{fill:#d86444;}.cls-9{fill:#c74a30;}.cls-10{fill:#555554;}.cls-11{fill:#3a3b3a;}</style></defs><path class="cls-1" d="M67.75,39.58c-2.26-.46-65.61-12.48-67.67-8S38.5,76.94,38.5,76.94Z"/><path class="cls-2" d="M67.75,39.58l-15.64,20c-8-6.68-30.8-24.31-52-28C2.14,27.1,65.49,39.12,67.75,39.58Z"/><path class="cls-3" d="M53.3,61.76s-23.56-16.1-24.88-13.9S47.62,69,47.62,69Z"/><path class="cls-1" d="M133.36,42.78c2.29-.29,66.38-7.44,68.1-2.86s-41.78,42.34-41.78,42.34Z"/><path class="cls-2" d="M133.36,42.78l14.08,21.11c8.51-6.06,32.56-21.89,54-24C199.74,35.34,135.65,42.49,133.36,42.78Z"/><path class="cls-3" d="M146.56,65.41s24.72-14.25,25.86-12-20.75,19.62-20.75,19.62Z"/><path class="cls-4" d="M204.86,56.49c-3.89,20.73,2,53.51,29.36,69S288,114.42,288,114.42s-12.37,25.5-21.29,27.86l23,18.19s37.12-3,63.31-52S343.58,6.79,298.39,1,212.92,13.53,204.86,56.49Z"/><path class="cls-5" d="M213.36,142.28c33.64,8.94,41.09,26.35,50.55,61.57s-33.65,224-33.65,224h-21s5.25-61,1-80.43-27.87-55.06-34.17-74.58,13.8-82.08,13.8-82.08Z"/><polygon class="cls-6" points="161.94 301.37 264.78 301.37 262.67 136.82 170.64 129.14 161.94 301.37"/><path class="cls-7" d="M211.59,235.09s-5,37.94-5.7,66.27H190.21Z"/><path class="cls-7" d="M243.19,211.25S213.36,288,200.9,301.36h44.85Z"/><path class="cls-6" d="M20.88,164.85s11.34,46.36,26.62,85.51,32.39,99.78,36,133.68,2.84,48.69,2.84,48.69h21.3S124.35,332.48,124.36,280C124.36,280,128.89,164.85,20.88,164.85Z"/><path class="cls-4" d="M20.88,164.85s9.7,39.66,23.25,76.59C51.06,251.7,60.69,262,68.77,272.1l.11.14c16.71-8.6,34.71-14.79,53.15-19.42C116,218.78,94.82,164.85,20.88,164.85Z"/><path class="cls-5" d="M68.88,272.24c8.51,10.67,39.64,49.4,51.17,70.39,2.46-22.54,4.31-45.24,4.31-62.67A140.51,140.51,0,0,0,122,252.82C103.59,257.45,85.59,263.64,68.88,272.24Z"/><path class="cls-6" d="M170.64,129.14s32.5,49.61,40.14,106c0,0-21.49,97.86-23.87,141.79s-5.47,64.92-5.47,64.92H159.69s-2.38-58.72-8.11-87.36-24.73-63-24.73-63-32.95-.95-51.61-16.71-34.41-74.07-34.41-74.07Z"/><path class="cls-4" d="M40.83,200.64s12.4,58.7,31.07,74.45,54.95,16.33,54.95,16.33S141.55,318,149,343.93c0,0-1.23-52,2.59-88.11S172,160.18,172,160.18l.48-28.13c-1.15-1.9-1.82-2.91-1.82-2.91Z"/><path class="cls-6" d="M67.75,36.16C81.69,28.62,124.39,34,137,40.82c9.13,4.92,22.72,31.74,29,47.48,4.89,12.16,11.39,56.46,4.63,78.29S135.48,214.37,96,211.25,29.78,189.46,22.5,171.78,29.65,95,33.37,86.12,57.42,41.75,67.75,36.16Z"/><path class="cls-4" d="M90.87,82.26l-3.16-6-6.91,6S72,81,57.53,72.56c0,0-19.2,6.65-21,37.41,0,0,8.4,21.51,16.06,26.33,0,0-6.19,43.44,4.63,89.76s73.3,31.8,76.16,10.47,10.58-91.68,10.58-91.68,12.57-13.44,18-23.55c0,0,6.16-30.72-19.28-43.57,0,0-16.08,7.6-22.3,7.6l-3.69-5.91L111,85.18Z"/><path class="cls-5" d="M108.46,146c0,4.28-5.09,7.75-11.36,7.75S85.74,150.29,85.74,146Z"/><path class="cls-8" d="M94,144.51h0a14.73,14.73,0,0,1-12.92-16.34l3.6-30.74L114,100.86l-3.59,30.73A14.73,14.73,0,0,1,94,144.51Z"/><rect class="cls-9" x="77.25" y="125.39" width="37.44" height="1" transform="translate(-39.18 208.31) rotate(-84.06)"/><path class="cls-4" d="M80.55,114.74c1.24-9,9.76-12.63,18.42-11.44s15.89,7,14.66,16c0,0,14.65-18.39,6.73-33.94l-3.69-5.91-6.51,6.52L91.75,83.16l-4-6.86-6.91,6s-6.7,10-6.7,19.81S80.55,114.74,80.55,114.74Z"/><path class="cls-10" d="M113,119.89l.09-.69a12.15,12.15,0,0,0-3.39-9.94A18.71,18.71,0,0,0,87,106.14a12.16,12.16,0,0,0-5.94,8.66l-.13.91-4.07-3.5.65-.75,2.71,2.32a13.26,13.26,0,0,1,6.25-8.49,19.73,19.73,0,0,1,24,3.29,13.27,13.27,0,0,1,3.72,10.08l3.85-.71.18,1Z"/><rect class="cls-10" x="95.67" y="99.24" width="7.14" height="1" transform="translate(-7.77 191.09) rotate(-85.63)"/><path class="cls-11" d="M113.53,87a13.08,13.08,0,0,1-26-2.49c.69-7.19,6.57-7.22,13.77-6.53S114.22,79.83,113.53,87Z"/><path class="cls-11" d="M86.86,69.29A7.11,7.11,0,0,0,84.73,66c-1.28-.91-12.07-4.44-16.11-5.73l.3-1c1.5.48,14.75,4.7,16.39,5.87A8.05,8.05,0,0,1,87.82,69Z"/><path class="cls-4" d="M75.28,55.89s13.16,7.38,15.36,7.24,1.18-11.24-3.41-13S74.86,53.86,75.28,55.89Z"/><path class="cls-11" d="M117.18,72.27l-.87-.49a7.94,7.94,0,0,1,3.32-3.13c1.86-.77,15.72-1.84,17.3-2l.07,1c-4.23.32-15.54,1.29-17,1.88A7.08,7.08,0,0,0,117.18,72.27Z"/><path class="cls-4" d="M131.53,61.9S117,66.05,114.91,65.42s1.43-11.21,6.29-11.82S132.4,60,131.53,61.9Z"/><path class="cls-6" d="M262.67,136.82c33.65,8.94,47.84,43.11,57.3,78.33s-33.64,224-33.64,224h-21s5.26-61,1.05-80.43-27.86-55.06-34.17-74.58S246,202,246,202Z"/><path class="cls-4" d="M72.63,432.73a17.49,17.49,0,0,1,35,0Z"/><path class="cls-4" d="M146.31,441.8a17.49,17.49,0,0,1,35,0Z"/><path class="cls-4" d="M250.81,439.1a17.49,17.49,0,0,1,35,0Z"/><path class="cls-5" d="M194.49,427.8a17.49,17.49,0,0,1,35,0Z"/></svg>